<svg width="512" height="512" xmlns="http://www.w3.org/2000/svg" class="svg-inline--fa fa-envelope fa-w-16">

 <g>
  <title>background</title>
  <rect fill="none" id="canvas_background" height="402" width="582" y="-1" x="-1"/>
 </g>
 <g>
  <title>Layer 1</title>
  <path id="svg_1" d="m464,64l-416,0c-26.51,0 -48,21.49 -48,48l0,288c0,26.51 21.49,48 48,48l416,0c26.51,0 48,-21.49 48,-48l0,-288c0,-26.51 -21.49,-48 -48,-48zm0,48l0,40.805c-22.422,18.259 -58.168,46.651 -134.587,106.49c-16.841,13.247 -50.201,45.072 -73.413,44.701c-23.208,0.375 -56.579,-31.459 -73.413,-44.701c-76.407,-59.83 -112.162,-88.228 -134.587,-106.49l0,-40.805l416,0zm-416,288l0,-185.602c22.914,18.251 55.409,43.862 104.938,82.646c21.857,17.205 60.134,55.186 103.062,54.955c42.717,0.231 80.509,-37.199 103.053,-54.947c49.528,-38.783 82.032,-64.401 104.947,-82.653l0,185.601l-416,0z" fill="#ffffff"/>
 </g>
</svg>