<svg width="448" height="512" xmlns="http://www.w3.org/2000/svg" class="svg-inline--fa fa-linkedin-in fa-w-14">

 <g>
  <title>background</title>
  <rect fill="none" id="canvas_background" height="402" width="582" y="-1" x="-1"/>
 </g>
 <g>
  <title>Layer 1</title>
  <path id="svg_1" d="m100.3,448l-92.9,0l0,-299.1l92.9,0l0,299.1zm-46.5,-339.9c-29.7,0 -53.8,-24.6 -53.8,-54.3s24.1,-53.8 53.8,-53.8s53.8,24.1 53.8,53.8s-24.1,54.3 -53.8,54.3zm394.2,339.9l-92.7,0l0,-145.6c0,-34.7 -0.7,-79.2 -48.3,-79.2c-48.3,0 -55.7,37.7 -55.7,76.7l0,148.1l-92.8,0l0,-299.1l89.1,0l0,40.8l1.3,0c12.4,-23.5 42.7,-48.3 87.9,-48.3c94,0 111.3,61.9 111.3,142.3l0,164.3l-0.1,0z" fill="#ffffff"/>
 </g>
</svg>